# xmcd
#
# Track frame offsets: 
#        150
#        35582
#        67776
#        104018
#        137423
#        169602
#        192410
#        218668
#
# Disc length: 3344 seconds
#
# Revision: 1
# Processed by: cddbd v1.5.2PL0 Copyright (c) Steve Scherf et al.
# Submitted via: ExactAudioCopy v0.95b4
#
DISCID=6b0d0e08
DTITLE=Eric Alexander Quartet - Gentle Ballads III
DYEAR=2008
DGENRE=Jazz
TTITLE0=Little Girl Blue <R. Rodgers>
TTITLE1=Don't Explain <B. Holiday>
TTITLE2=All The Way <J. van Heusen>
TTITLE3=Summertime <G. Gershwin>
TTITLE4=You'll Be Mine Tonight <C. Payne>
TTITLE5=They Say It's Wonderful <I. Berlin>
TTITLE6=Killing Me Softly With His Song <N. Gimbel>
TTITLE7=Smoke Gets In Your Eyes <J. Kern>
EXTD=YEAR: 2008
EXTT0=
EXTT1=
EXTT2=
EXTT3=
EXTT4=
EXTT5=
EXTT6=
EXTT7=
PLAYORDER=
